# xmcd CD database file
#
# Track frame offsets:
#	150
#	7672
#	20138
#	41891
#	61872
#	81992
#	97837
#	114870
#	130624
#	155929
#	178854
#	195602
#	212274
#	232261
#	249978
#	269272
#
# Disc length: 3896 seconds
#
# Revision: 0
# Processed by: cddbd v1.5.2PL0 Copyright (c) Steve Scherf et al.
# Submitted via: CDex 1.51
#
DISCID=d00f3610
DTITLE=Nordic Voices - Nordic Voices
DYEAR=1984
DGENRE=Jazz
TTITLE0=REBEKKA BAKKEN - Overmade fullt av nade
TTITLE1=SIDSEL ENDERSEN - Night Song
TTITLE2=MARI BOINE - Vudi Vuoi Mu
TTITLE3=KARIN KROG - Lazy Afternoon
TTITLE4=MALENE MORTENSEN - I've Got A Date With A Dream
TTITLE5=RIGMOR GUSTAFSSON - Medan du väntar
TTITLE6=SOLVEIG SLETTAHJELL - We Were Indians
TTITLE7=CAROLINE HENDERSON - Jesus
TTITLE8=CAECILIE NORBY - Raised On Blue Moods
TTITLE9=JOSEPHINE CRONHOLM and factum est - Silver White Man
TTITLE10=IDA SAND - Love Is Real
TTITLE11=VIKTORIA TOLSTOY - Monologue
TTITLE12=SUSI HYLDGAARD - Suck The Bone
TTITLE13=JEANETTE LINDSTRÖM - Nature Boy
TTITLE14=HEINE TOTLAND and SILJE NERGAARD - We Were Runners
TTITLE15=NILS LANDGREN and JESSICA PILNÄS - The Winner Takes It All
EXTD=YEAR: 1984
EXTT0=
EXTT1=
EXTT2=
EXTT3=
EXTT4=
EXTT5=
EXTT6=
EXTT7=
EXTT8=
EXTT9=
EXTT10=
EXTT11=
EXTT12=
EXTT13=
EXTT14=
EXTT15=
PLAYORDER=
